<?xml version="1.0" encoding="UTF-8"?>
<svg id="Layer_2" data-name="Layer 2" xmlns="http://www.w3.org/2000/svg" viewBox="0 0 70.68 94">
  <defs>
    <style>
      .cls-1 {
        fill: #f15f45;
      }
    </style>
  </defs>
  <g id="Layer_1-2" data-name="Layer 1">
    <g>
      <path class="cls-1" d="m26.84,90.47c0,.58-.04,1.08-.11,1.49-.07.42-.19.74-.35.98-.16.24-.35.43-.57.57-.22.14-.43.22-.65.22-.65.14-1.22.23-1.71.24-.49.02-1.08.03-1.77.03-2.43,0-4.42-.39-5.98-1.17-1.56-.78-2.79-1.94-3.69-3.48-.91-1.54-1.52-3.47-1.85-5.79-.33-2.32-.49-5.4-.49-9.24v-11.19c0-2.46-.15-4.46-.46-5.98-.31-1.52-.78-2.85-1.41-3.99-.63-1.14-1.45-2.06-2.45-2.77-1-.71-2.2-1.13-3.61-1.28-.33-.07-.6-.17-.82-.3-.22-.13-.39-.32-.52-.57-.13-.25-.23-.59-.3-1.01C.04,46.83,0,46.35,0,45.8c0-.58.03-1.07.08-1.47.05-.4.14-.73.27-1.01.13-.27.3-.46.52-.57.22-.11.49-.2.82-.27,2.68-.29,4.68-1.58,6-3.88,1.32-2.3,1.98-5.7,1.98-10.19v-8.75c0-3.8.17-6.86.52-9.18.34-2.32.98-4.26,1.9-5.81.92-1.56,2.16-2.73,3.69-3.5C17.32.39,19.29,0,21.68,0c.69,0,1.26,0,1.71.03.45.02,1.01.1,1.66.24.25,0,.5.06.73.19.24.13.43.32.6.57.16.25.28.59.35,1.01.07.42.11.91.11,1.49,0,.62-.04,1.13-.11,1.55-.07.42-.19.77-.35,1.06-.16.29-.36.49-.6.6-.24.11-.5.16-.79.16l-2.23.05c-.87,0-1.61.15-2.23.46-.62.31-1.11.91-1.49,1.79-.38.89-.67,2.11-.87,3.67-.2,1.56-.3,3.95-.3,7.17v7.93c0,2.64-.14,4.9-.43,6.76-.29,1.87-.81,3.54-1.55,5.03-.74,1.49-1.73,2.76-2.96,3.83-1.23,1.07-2.79,1.8-4.67,2.2,1.88.36,3.44,1.08,4.67,2.15,1.23,1.07,2.22,2.35,2.96,3.86.74,1.5,1.26,3.18,1.55,5.03.29,1.85.43,4.11.43,6.79v10.32c0,3.19.09,5.56.27,7.12.18,1.56.46,2.78.84,3.67.38.89.87,1.49,1.47,1.82.6.33,1.31.49,2.15.49l2.28.05c.33,0,.62.05.87.16.25.11.46.3.62.57.16.27.28.62.35,1.03.07.42.11.95.11,1.6h0Z"/>
      <path class="cls-1" d="m51.2,90.44c0,1.2-.14,2.04-.41,2.53-.27.49-.66.73-1.17.73h-13.91c-.43,0-.85-.06-1.25-.19-.4-.13-.76-.34-1.09-.62-.33-.29-.59-.68-.79-1.17-.2-.49-.3-1.1-.3-1.82V4.1c0-.69.1-1.28.3-1.77.2-.49.46-.89.79-1.2.33-.31.69-.53,1.09-.65.4-.13.82-.19,1.25-.19h13.91c.22,0,.43.05.62.16.2.11.37.31.52.6.14.29.25.64.33,1.06.07.42.11.93.11,1.55,0,1.16-.14,1.99-.41,2.5-.27.51-.66.76-1.17.76h-8.86v80.2h8.86c.22,0,.43.05.62.16.2.11.37.3.52.57.14.27.25.62.33,1.03.07.42.11.93.11,1.55h0Z"/>
      <path class="cls-1" d="m70.49,2.18c-3.37,7.14-5.89,14.47-7.54,21.98-1.65,7.51-2.48,15.07-2.48,22.67,0,7.64.84,15.2,2.53,22.7,1.69,7.5,4.15,14.85,7.38,22.06.18.43.28.79.29,1.09.02.3-.1.55-.35.75-.25.2-.63.34-1.15.43-.52.09-1.22.13-2.1.13-.64,0-1.19-.02-1.65-.05-.46-.04-.86-.11-1.2-.21-.34-.11-.61-.23-.83-.37-.21-.14-.37-.3-.48-.48-1.92-3.62-3.61-7.29-5.06-11-1.46-3.71-2.68-7.49-3.68-11.32-.99-3.84-1.74-7.72-2.24-11.64-.5-3.93-.75-7.9-.75-11.91,0-4.01.28-7.98.83-11.88.55-3.91,1.33-7.79,2.34-11.64,1.01-3.85,2.25-7.65,3.7-11.38,1.46-3.73,3.09-7.42,4.9-11.08.04-.14.13-.27.29-.37.16-.11.38-.21.67-.32.28-.11.67-.19,1.17-.24C65.61.03,66.25,0,67.03,0c.82,0,1.47.05,1.97.16.5.11.89.25,1.17.43.28.18.44.41.48.69.04.28-.02.59-.16.91h0Z"/>
    </g>
  </g>
</svg>